<?xml version="1.0" standalone="no"?>
<svg viewBox="0 0 1024 1024" version="1.1" xmlns="http://www.w3.org/2000/svg" width="200" height="200">
  <path d="M512 85.333333c235.648 0 426.666667 191.018667 426.666667 426.666667s-191.018667 426.666667-426.666667 426.666667S85.333333 747.648 85.333333 512 276.352 85.333333 512 85.333333z m149.162667 179.2a32 32 0 0 0-45.226667 0L371.114667 508.330667a32 32 0 0 0 0 45.226666l36.181333 36.181334a32 32 0 0 0 45.226667 0l45.226666-45.226667 135.637334 135.637333a32 32 0 0 0 45.226666 0l36.181334-36.181333a32 32 0 0 0 0-45.226667L579.157333 462.890667l45.226667-45.226667a32 32 0 0 0 0-45.226667l-36.181333-36.181333a32 32 0 0 0-45.226667 0l-45.226667 45.226667-90.453333-90.453334 153.856-153.856a32 32 0 0 0 0-45.226666l-36.181333-36.181334a32 32 0 0 0-45.226667 0L285.866667 360.874667a32 32 0 0 0 0 45.226666l375.296 375.296a32 32 0 0 0 45.226666 0l36.181334-36.181333a32 32 0 0 0 0-45.226667l-153.856-153.856 72.448-72.405333z"></path>
</svg> 